%TF.GenerationSoftware,Altium Limited,Altium Designer,22.6.1 (34)*%
G04 Layer_Physical_Order=1*
G04 Layer_Color=255*
%FSLAX45Y45*%
%MOMM*%
%TF.SameCoordinates,421C64DB-711B-49BE-949A-821E8169F4DF*%
%TF.FilePolarity,Positive*%
%TF.FileFunction,Copper,L1,Top,Signal*%
%TF.Part,Single*%
G01*
G75*
%TA.AperFunction,SMDPad,CuDef*%
%ADD10R,0.75000X0.76000*%
%ADD11R,0.60000X0.54000*%
%ADD12R,0.50000X0.50000*%
%ADD13R,0.60000X0.51000*%
%ADD14R,0.67000X0.62000*%
%ADD15R,0.73000X0.51000*%
%ADD16R,0.50000X0.50000*%
%ADD17R,0.50000X0.40000*%
G04:AMPARAMS|DCode=18|XSize=0.635mm|YSize=0.635mm|CornerRadius=0.15875mm|HoleSize=0mm|Usage=FLASHONLY|Rotation=270.000|XOffset=0mm|YOffset=0mm|HoleType=Round|Shape=RoundedRectangle|*
%AMROUNDEDRECTD18*
21,1,0.63500,0.31750,0,0,270.0*
21,1,0.31750,0.63500,0,0,270.0*
1,1,0.31750,-0.15875,-0.15875*
1,1,0.31750,-0.15875,0.15875*
1,1,0.31750,0.15875,0.15875*
1,1,0.31750,0.15875,-0.15875*
%
%ADD18ROUNDEDRECTD18*%
%ADD19R,1.00000X1.15000*%
%ADD20R,0.60000X0.56000*%
%ADD21R,0.63000X0.51000*%
%ADD22R,2.60000X2.60000*%
%ADD23R,0.26000X0.84000*%
%ADD24R,0.84000X0.26000*%
%ADD25O,0.40000X1.05000*%
%TA.AperFunction,Conductor*%
%ADD26C,0.20000*%
%TA.AperFunction,ComponentPad*%
%ADD27C,1.60000*%
%ADD28R,1.60000X1.60000*%
%TA.AperFunction,ViaPad*%
%ADD29C,0.40000*%
G36*
X127000Y3175000D02*
X2984500D01*
Y3175000D01*
X3009517D01*
X3058589Y3165239D01*
X3104814Y3146092D01*
X3146415Y3118295D01*
X3181794Y3082915D01*
X3209591Y3041314D01*
X3228738Y2995089D01*
X3238499Y2946017D01*
X3238499Y2921000D01*
X3238500Y254000D01*
Y228983D01*
X3228739Y179911D01*
X3209592Y133686D01*
X3181795Y92084D01*
X3146415Y56705D01*
X3104814Y28908D01*
X3058589Y9761D01*
X3009517Y0D01*
X2984500D01*
X63500Y0D01*
X38483Y0D01*
X-10589Y9761D01*
X-56814Y28908D01*
X-98416Y56705D01*
X-133795Y92084D01*
X-161592Y133686D01*
X-180739Y179911D01*
X-190500Y228983D01*
Y254000D01*
X-190501Y2920999D01*
X-190501Y2921000D01*
Y2921000D01*
X-188420Y2939729D01*
X-179404Y2976323D01*
X-165689Y3011428D01*
X-147509Y3044442D01*
X-125176Y3074801D01*
X-99071Y3101985D01*
X-69641Y3125528D01*
X-37390Y3145030D01*
X-2869Y3160154D01*
X33331Y3170644D01*
X70590Y3176318D01*
X108271Y3177081D01*
X127000Y3175000D01*
D02*
G37*
%LPC*%
G36*
X495300Y2950300D02*
X449100D01*
Y2906600D01*
X495300D01*
Y2950300D01*
D02*
G37*
G36*
X1617500Y2850500D02*
X1557500D01*
Y2800500D01*
X1617500D01*
Y2850500D01*
D02*
G37*
G36*
X1955400Y2830900D02*
X1917700D01*
Y2793200D01*
X1955400D01*
Y2830900D01*
D02*
G37*
G36*
X1892300D02*
X1854600D01*
Y2793200D01*
X1892300D01*
Y2830900D01*
D02*
G37*
G36*
X1813000Y3127736D02*
X381000D01*
X369519Y3122981D01*
X179019Y2932481D01*
X174264Y2921000D01*
X179019Y2909519D01*
X187864Y2900675D01*
Y2519736D01*
X93500D01*
Y2533500D01*
X33500D01*
Y2473500D01*
X93500D01*
Y2487264D01*
X197375D01*
X199319Y2485319D01*
X210800Y2480564D01*
X282500D01*
Y2464800D01*
X352500D01*
Y2528800D01*
X282500D01*
Y2513036D01*
X220336D01*
Y2840024D01*
X233036Y2843877D01*
X235976Y2839476D01*
X244246Y2833951D01*
X254000Y2832010D01*
X263754Y2833951D01*
X272024Y2839476D01*
X273218Y2841264D01*
X509213D01*
X520694Y2846019D01*
X598438Y2923764D01*
X663500D01*
Y2909500D01*
X733500D01*
Y2970500D01*
X663500D01*
Y2956236D01*
X591713D01*
X580233Y2951481D01*
X578633Y2949881D01*
X577623Y2950300D01*
X520700D01*
Y2901913D01*
X523619Y2894867D01*
X502488Y2873736D01*
X273218D01*
X272024Y2875524D01*
X263754Y2881049D01*
X254000Y2882990D01*
X244246Y2881049D01*
X235976Y2875524D01*
X233036Y2871123D01*
X220336Y2874976D01*
Y2907400D01*
X215580Y2918881D01*
X213461Y2921000D01*
X387725Y3095264D01*
X466033D01*
X469500Y3084000D01*
X469500Y3082564D01*
Y3019400D01*
X449100D01*
Y2975700D01*
X508000D01*
X566900D01*
Y3019400D01*
X566900D01*
X567711Y3031764D01*
X663500D01*
Y2998500D01*
X733500D01*
Y3012764D01*
X997000D01*
X1008481Y3017519D01*
X1022725Y3031764D01*
X1136275D01*
X1162807Y3005231D01*
X1154480Y2995981D01*
X1143000Y3000736D01*
X1016000D01*
X1004519Y2995981D01*
X818775Y2810236D01*
X444500D01*
X433019Y2805481D01*
X306019Y2678481D01*
X301264Y2667000D01*
Y2615200D01*
X282500D01*
Y2551200D01*
X352500D01*
Y2615200D01*
X333736D01*
Y2660275D01*
X451225Y2777764D01*
X825500D01*
X836981Y2782519D01*
X868269Y2813807D01*
X877519Y2805480D01*
X872764Y2794000D01*
Y2678500D01*
X854000D01*
Y2664236D01*
X673500D01*
Y2682000D01*
X596500D01*
Y2617400D01*
X576100D01*
Y2573700D01*
X635000D01*
X693900D01*
Y2617400D01*
X673500D01*
Y2631764D01*
X854000D01*
Y2617500D01*
X924000D01*
Y2678500D01*
X905236D01*
Y2787275D01*
X1022725Y2904764D01*
X1124559D01*
X1126764Y2902559D01*
Y2856221D01*
X1123476Y2854024D01*
X1117951Y2845755D01*
X1116010Y2836000D01*
Y2771000D01*
X1117951Y2761246D01*
X1123476Y2752976D01*
X1131746Y2747451D01*
X1141500Y2745510D01*
X1151254Y2747451D01*
X1159524Y2752976D01*
X1165049Y2761246D01*
X1166990Y2771000D01*
Y2836000D01*
X1165049Y2845755D01*
X1159524Y2854024D01*
X1159236Y2854216D01*
Y2909284D01*
X1154481Y2920765D01*
X1142765Y2932481D01*
X1131284Y2937236D01*
X1016000D01*
X1004520Y2932481D01*
X996193Y2941731D01*
X1022725Y2968264D01*
X1136275D01*
X1190264Y2914275D01*
Y2855219D01*
X1188476Y2854024D01*
X1182951Y2845755D01*
X1181010Y2836000D01*
Y2771000D01*
X1182951Y2761246D01*
X1188476Y2752976D01*
X1196746Y2747451D01*
X1206500Y2745510D01*
X1216254Y2747451D01*
X1224524Y2752976D01*
X1230049Y2761246D01*
X1231990Y2771000D01*
Y2836000D01*
X1230049Y2845755D01*
X1224524Y2854024D01*
X1222736Y2855219D01*
Y2921000D01*
X1217981Y2932480D01*
X1227231Y2940807D01*
X1253764Y2914275D01*
Y2854216D01*
X1253476Y2854024D01*
X1247951Y2845755D01*
X1246010Y2836000D01*
Y2771000D01*
X1247951Y2761246D01*
X1253476Y2752976D01*
X1261746Y2747451D01*
X1271500Y2745510D01*
X1281254Y2747451D01*
X1289524Y2752976D01*
X1295049Y2761246D01*
X1296990Y2771000D01*
Y2836000D01*
X1295049Y2845755D01*
X1289524Y2854024D01*
X1286236Y2856221D01*
Y2921000D01*
X1281481Y2932481D01*
X1154481Y3059481D01*
X1143000Y3064236D01*
X1016000D01*
X1004519Y3059481D01*
X990275Y3045236D01*
X733500D01*
Y3059500D01*
X686434D01*
X675000Y3064236D01*
X546500D01*
Y3082564D01*
X546500Y3084000D01*
X549967Y3095264D01*
X1806275D01*
X2117500Y2784039D01*
Y2746000D01*
X2200500D01*
Y2807000D01*
X2140461D01*
X1824480Y3122981D01*
X1813000Y3127736D01*
D02*
G37*
G36*
X1519500Y2790912D02*
X1472500D01*
X1468673Y2789327D01*
X1467088Y2785500D01*
Y2780900D01*
X1452100D01*
Y2743200D01*
X1472500D01*
Y2785500D01*
X1519500D01*
X1542500Y2762500D01*
Y2743200D01*
X1552900D01*
Y2780900D01*
X1531754D01*
X1523327Y2789327D01*
X1519500Y2790912D01*
D02*
G37*
G36*
X1702500D02*
X1655500D01*
X1651673Y2789327D01*
X1643247Y2780900D01*
X1622100D01*
Y2743200D01*
X1632500D01*
Y2762500D01*
X1655500Y2785500D01*
X1702500D01*
Y2743200D01*
X1722900D01*
Y2780900D01*
X1707912D01*
Y2785500D01*
X1706327Y2789327D01*
X1702500Y2790912D01*
D02*
G37*
G36*
X1955400Y2767800D02*
X1917700D01*
Y2730100D01*
X1955400D01*
Y2767800D01*
D02*
G37*
G36*
X1892300D02*
X1854600D01*
Y2730100D01*
X1892300D01*
Y2767800D01*
D02*
G37*
G36*
X2200500Y2715000D02*
X2117500D01*
Y2698736D01*
X1935000D01*
Y2710500D01*
X1875000D01*
Y2650500D01*
X1888764D01*
Y2610225D01*
X1834775Y2556236D01*
X1694725D01*
X1617500Y2633461D01*
Y2660500D01*
X1557500D01*
Y2610500D01*
X1594539D01*
X1676519Y2528519D01*
X1688000Y2523764D01*
X1841500D01*
X1852981Y2528519D01*
X1916481Y2592019D01*
X1921236Y2603500D01*
Y2650500D01*
X1935000D01*
Y2666264D01*
X2117500D01*
Y2654000D01*
X2200500D01*
Y2715000D01*
D02*
G37*
G36*
X1722900Y2717800D02*
X1702500D01*
Y2675500D01*
X1655500D01*
X1632500Y2698500D01*
Y2717800D01*
X1622100D01*
Y2680100D01*
X1643246D01*
X1651673Y2671673D01*
X1655500Y2670088D01*
X1702500D01*
X1706327Y2671673D01*
X1707912Y2675500D01*
Y2680100D01*
X1722900D01*
Y2717800D01*
D02*
G37*
G36*
X1552900D02*
X1542500D01*
Y2698500D01*
X1519500Y2675500D01*
X1472500D01*
Y2717800D01*
X1452100D01*
Y2680100D01*
X1467088D01*
Y2675500D01*
X1468673Y2671673D01*
X1472500Y2670088D01*
X1519500D01*
X1523327Y2671673D01*
X1531753Y2680100D01*
X1552900D01*
Y2717800D01*
D02*
G37*
G36*
X1193800Y2679763D02*
X1188786Y2678766D01*
X1173768Y2668732D01*
X1169096Y2661739D01*
X1168454Y2661222D01*
X1152735Y2658560D01*
X1151254Y2659549D01*
X1141500Y2661490D01*
X1131746Y2659549D01*
X1123476Y2654024D01*
X1117951Y2645754D01*
X1116010Y2636000D01*
Y2571000D01*
X1117951Y2561246D01*
X1123476Y2552976D01*
X1125264Y2551782D01*
Y2431441D01*
X1123059Y2429236D01*
X889000D01*
X877520Y2424481D01*
X869193Y2433731D01*
X900481Y2465019D01*
X905236Y2476500D01*
Y2528500D01*
X924000D01*
Y2589500D01*
X854000D01*
Y2528500D01*
X872764D01*
Y2483225D01*
X369519Y1979981D01*
X364764Y1968500D01*
Y1467225D01*
X238131Y1340592D01*
X233367Y1344247D01*
X212689Y1352812D01*
X190500Y1355733D01*
X168311Y1352812D01*
X147633Y1344247D01*
X129877Y1330623D01*
X116253Y1312867D01*
X107688Y1292189D01*
X104767Y1270000D01*
X107688Y1247811D01*
X116253Y1227133D01*
X129877Y1209377D01*
X147633Y1195753D01*
X168311Y1187188D01*
X190500Y1184267D01*
X212689Y1187188D01*
X233367Y1195753D01*
X251123Y1209377D01*
X264747Y1227133D01*
X273312Y1247811D01*
X276233Y1270000D01*
X273312Y1292189D01*
X264747Y1312867D01*
X261092Y1317631D01*
X392481Y1449019D01*
X397236Y1460500D01*
Y1961775D01*
X487269Y2051807D01*
X496519Y2043480D01*
X491764Y2032000D01*
Y1853200D01*
X473000D01*
Y1789200D01*
X461128Y1787200D01*
X452600D01*
Y1747500D01*
X508000D01*
Y1734800D01*
X520700D01*
Y1682400D01*
X563400D01*
Y1734632D01*
X573960Y1741688D01*
X574500Y1741464D01*
X591575D01*
X657000Y1676039D01*
Y1638000D01*
X740000D01*
Y1699000D01*
X679961D01*
X661661Y1717300D01*
X666922Y1730000D01*
X740000D01*
Y1791000D01*
X714736D01*
Y1893300D01*
X733500D01*
Y1957300D01*
X663500D01*
Y1893300D01*
X682264D01*
Y1791000D01*
X657000D01*
Y1739922D01*
X644300Y1734661D01*
X609781Y1769181D01*
X598300Y1773936D01*
X581225D01*
X543000Y1812161D01*
Y1853200D01*
X524236D01*
Y2025275D01*
X895725Y2396764D01*
X1129784D01*
X1141265Y2401519D01*
X1152980Y2413235D01*
X1157736Y2424716D01*
Y2539403D01*
X1170436Y2543256D01*
X1173768Y2538268D01*
X1188786Y2528234D01*
X1193800Y2527237D01*
Y2603500D01*
Y2679763D01*
D02*
G37*
G36*
X113900Y2653900D02*
X76200D01*
Y2616200D01*
X113900D01*
Y2653900D01*
D02*
G37*
G36*
X50800D02*
X13100D01*
Y2616200D01*
X50800D01*
Y2653900D01*
D02*
G37*
G36*
X113900Y2590800D02*
X76200D01*
Y2553100D01*
X113900D01*
Y2590800D01*
D02*
G37*
G36*
X50800D02*
X13100D01*
Y2553100D01*
X50800D01*
Y2590800D01*
D02*
G37*
G36*
X693900Y2548300D02*
X647700D01*
Y2504600D01*
X693900D01*
Y2548300D01*
D02*
G37*
G36*
X622300D02*
X576100D01*
Y2504600D01*
X622300D01*
Y2548300D01*
D02*
G37*
G36*
X1007900Y2254600D02*
X965200D01*
Y2214900D01*
X1007900D01*
Y2254600D01*
D02*
G37*
G36*
X939800D02*
X897100D01*
Y2214900D01*
X939800D01*
Y2254600D01*
D02*
G37*
G36*
X1495500Y2234200D02*
X1425500D01*
Y2211086D01*
X1248000D01*
Y2218000D01*
X1165000D01*
Y2203736D01*
X1108000D01*
X1096519Y2198980D01*
X1029575Y2132036D01*
X996480D01*
X992717Y2135800D01*
X997066Y2149412D01*
X999371Y2149800D01*
X1007900D01*
Y2189500D01*
X952500D01*
X897100D01*
Y2149800D01*
X905628D01*
X917500Y2147800D01*
X917500Y2137100D01*
Y2115236D01*
X892500D01*
X881020Y2110481D01*
X798475Y2027936D01*
X733500D01*
Y2043700D01*
X663500D01*
Y1979700D01*
X733500D01*
Y1995464D01*
X805200D01*
X816681Y2000220D01*
X899225Y2082764D01*
X935700D01*
X938201Y2083800D01*
X987500D01*
Y2099564D01*
X1036300D01*
X1047780Y2104319D01*
X1114725Y2171264D01*
X1165000D01*
Y2157000D01*
X1248000D01*
Y2178614D01*
X1425500D01*
Y2170200D01*
X1495500D01*
Y2234200D01*
D02*
G37*
G36*
Y2147800D02*
X1425500D01*
Y2111736D01*
X1248000D01*
Y2126000D01*
X1165000D01*
Y2065000D01*
X1248000D01*
Y2079264D01*
X1437200D01*
X1444264Y2074544D01*
Y1778000D01*
X1449019Y1766519D01*
X1451019Y1764519D01*
X1462500Y1759764D01*
X1487500D01*
Y1730000D01*
X1560500D01*
Y1744264D01*
X1703275D01*
X1764519Y1683019D01*
X1776000Y1678264D01*
X1806500D01*
Y1661500D01*
X1876500D01*
Y1678114D01*
X1988020D01*
X1991911Y1674222D01*
X1987563Y1660610D01*
X1985129Y1660200D01*
X1976600D01*
Y1620500D01*
X2032000D01*
X2087400D01*
Y1660200D01*
X2078872D01*
X2067000Y1662200D01*
X2067000Y1672900D01*
Y1726200D01*
X1997000D01*
Y1710586D01*
X1876500D01*
Y1727500D01*
X1806500D01*
Y1710736D01*
X1782725D01*
X1721481Y1771980D01*
X1710000Y1776736D01*
X1560500D01*
Y1791000D01*
X1511484D01*
X1508500Y1792236D01*
X1476736D01*
Y2083800D01*
X1495500D01*
Y2147800D01*
D02*
G37*
G36*
X2489200Y2136638D02*
Y2044700D01*
X2581138D01*
X2579187Y2059515D01*
X2568567Y2085155D01*
X2551672Y2107172D01*
X2529655Y2124067D01*
X2504015Y2134687D01*
X2489200Y2136638D01*
D02*
G37*
G36*
X203200D02*
Y2044700D01*
X295138D01*
X293187Y2059515D01*
X282567Y2085155D01*
X265672Y2107172D01*
X243655Y2124067D01*
X218015Y2134687D01*
X203200Y2136638D01*
D02*
G37*
G36*
X2463800D02*
X2448985Y2134687D01*
X2423345Y2124067D01*
X2401328Y2107172D01*
X2384433Y2085155D01*
X2373813Y2059515D01*
X2371862Y2044700D01*
X2463800D01*
Y2136638D01*
D02*
G37*
G36*
X177800D02*
X162985Y2134687D01*
X137345Y2124067D01*
X115328Y2107172D01*
X98433Y2085155D01*
X87813Y2059515D01*
X85862Y2044700D01*
X177800D01*
Y2136638D01*
D02*
G37*
G36*
X2581138Y2019300D02*
X2489200D01*
Y1927362D01*
X2504015Y1929313D01*
X2529655Y1939933D01*
X2551672Y1956828D01*
X2568567Y1978845D01*
X2579187Y2004485D01*
X2581138Y2019300D01*
D02*
G37*
G36*
X295138D02*
X203200D01*
Y1927362D01*
X218015Y1929313D01*
X243655Y1939933D01*
X265672Y1956828D01*
X282567Y1978845D01*
X293187Y2004485D01*
X295138Y2019300D01*
D02*
G37*
G36*
X2463800D02*
X2371862D01*
X2373813Y2004485D01*
X2384433Y1978845D01*
X2401328Y1956828D01*
X2423345Y1939933D01*
X2448985Y1929313D01*
X2463800Y1927362D01*
Y2019300D01*
D02*
G37*
G36*
X177800D02*
X85862D01*
X87813Y2004485D01*
X98433Y1978845D01*
X115328Y1956828D01*
X137345Y1939933D01*
X162985Y1929313D01*
X177800Y1927362D01*
Y2019300D01*
D02*
G37*
G36*
X1896900Y1849100D02*
X1854200D01*
Y1809400D01*
X1896900D01*
Y1849100D01*
D02*
G37*
G36*
X1828800D02*
X1786100D01*
Y1809400D01*
X1828800D01*
Y1849100D01*
D02*
G37*
G36*
X1320400Y1814900D02*
X1282700D01*
Y1777200D01*
X1320400D01*
Y1814900D01*
D02*
G37*
G36*
X1257300D02*
X1219600D01*
Y1777200D01*
X1257300D01*
Y1814900D01*
D02*
G37*
G36*
X1071400Y1810100D02*
X1028700D01*
Y1770400D01*
X1071400D01*
Y1810100D01*
D02*
G37*
G36*
X1003300D02*
X960600D01*
Y1770400D01*
X1003300D01*
Y1810100D01*
D02*
G37*
G36*
X1320400Y1751800D02*
X1282700D01*
Y1714100D01*
X1320400D01*
Y1751800D01*
D02*
G37*
G36*
X1257300D02*
X1219600D01*
Y1714100D01*
X1257300D01*
Y1751800D01*
D02*
G37*
G36*
X2476500Y1863733D02*
X2454311Y1860812D01*
X2433633Y1852247D01*
X2415877Y1838623D01*
X2402253Y1820867D01*
X2393688Y1800189D01*
X2390767Y1778000D01*
X2393688Y1755811D01*
X2402253Y1735133D01*
X2415877Y1717377D01*
X2433633Y1703753D01*
X2454311Y1695188D01*
X2476500Y1692267D01*
X2498689Y1695188D01*
X2519367Y1703753D01*
X2537123Y1717377D01*
X2550747Y1735133D01*
X2559312Y1755811D01*
X2562233Y1778000D01*
X2559312Y1800189D01*
X2550747Y1820867D01*
X2537123Y1838623D01*
X2519367Y1852247D01*
X2498689Y1860812D01*
X2476500Y1863733D01*
D02*
G37*
G36*
X190500D02*
X168311Y1860812D01*
X147633Y1852247D01*
X129877Y1838623D01*
X116253Y1820867D01*
X107688Y1800189D01*
X104767Y1778000D01*
X107688Y1755811D01*
X116253Y1735133D01*
X129877Y1717377D01*
X147633Y1703753D01*
X168311Y1695188D01*
X190500Y1692267D01*
X212689Y1695188D01*
X233367Y1703753D01*
X251123Y1717377D01*
X264747Y1735133D01*
X273312Y1755811D01*
X276233Y1778000D01*
X273312Y1800189D01*
X264747Y1820867D01*
X251123Y1838623D01*
X233367Y1852247D01*
X212689Y1860812D01*
X190500Y1863733D01*
D02*
G37*
G36*
X495300Y1722100D02*
X452600D01*
Y1682400D01*
X495300D01*
Y1722100D01*
D02*
G37*
G36*
X1219200Y2679763D02*
Y2603500D01*
Y2527237D01*
X1224214Y2528234D01*
X1239232Y2538268D01*
X1242564Y2543256D01*
X1255264Y2539403D01*
Y2424716D01*
X1260020Y2413235D01*
X1271735Y2401519D01*
X1283216Y2396764D01*
X1453775D01*
X1571264Y2279275D01*
Y1968500D01*
X1576019Y1957019D01*
X1596319Y1936720D01*
X1607800Y1931964D01*
X1797520D01*
X1801283Y1928200D01*
X1796934Y1914588D01*
X1794629Y1914200D01*
X1786100D01*
Y1874500D01*
X1841500D01*
X1896900D01*
Y1914200D01*
X1888372D01*
X1886066Y1914588D01*
X1881717Y1928200D01*
X1885480Y1931964D01*
X2033859D01*
X2142764Y1823059D01*
Y1484525D01*
X2078733Y1420494D01*
X2067000Y1425355D01*
Y1472200D01*
X1997000D01*
Y1457836D01*
X1883000D01*
Y1473500D01*
X1800000D01*
Y1459236D01*
X1773725D01*
X1760980Y1471981D01*
X1749500Y1476736D01*
X1397000D01*
X1385520Y1471981D01*
X1377193Y1481231D01*
X1403725Y1507764D01*
X1587500D01*
X1598981Y1512519D01*
X1677725Y1591264D01*
X1806500D01*
Y1574500D01*
X1876500D01*
Y1640500D01*
X1806500D01*
Y1623736D01*
X1671000D01*
X1659519Y1618981D01*
X1580775Y1540236D01*
X1397000D01*
X1385519Y1535481D01*
X1290731Y1440693D01*
X1281481Y1449020D01*
X1286236Y1460500D01*
Y1634500D01*
X1300000D01*
Y1650264D01*
X1487500D01*
Y1638000D01*
X1560500D01*
Y1699000D01*
X1487500D01*
Y1682736D01*
X1300000D01*
Y1694500D01*
X1240000D01*
Y1684136D01*
X1059980D01*
X1053307Y1690809D01*
X1055319Y1704027D01*
X1062871Y1705300D01*
X1071400D01*
Y1745000D01*
X1016000D01*
X960600D01*
Y1705300D01*
X969128D01*
X981000Y1703300D01*
X981000Y1692600D01*
Y1639300D01*
X1051000D01*
Y1651664D01*
X1240000D01*
Y1634500D01*
X1253764D01*
Y1467225D01*
X1197019Y1410481D01*
X1192264Y1399000D01*
Y1257500D01*
X1190500D01*
Y1171400D01*
X1178100D01*
Y1159000D01*
X1114961D01*
X948030Y1325931D01*
X936550Y1330686D01*
X862587D01*
X861039Y1338470D01*
X856425Y1345375D01*
X849520Y1349989D01*
X841375Y1351609D01*
X809625D01*
X801480Y1349989D01*
X794575Y1345375D01*
X789961Y1338470D01*
X788341Y1330325D01*
Y1298575D01*
X789961Y1290430D01*
X794575Y1283525D01*
X801480Y1278911D01*
X809625Y1277291D01*
X841375D01*
X849520Y1278911D01*
X856425Y1283525D01*
X861039Y1290430D01*
X862587Y1298214D01*
X929825D01*
X1085939Y1142100D01*
X1080678Y1129400D01*
X1071600D01*
Y1103700D01*
X1139000D01*
Y1078300D01*
X1071600D01*
Y1057236D01*
X1041000D01*
X1029519Y1052480D01*
X1004519Y1027481D01*
X999764Y1016000D01*
Y910225D01*
X936700Y847161D01*
X924000Y852422D01*
Y900500D01*
X854000D01*
Y888986D01*
X728500D01*
Y905500D01*
X668500D01*
Y845500D01*
X728500D01*
Y856514D01*
X854000D01*
Y839500D01*
X911078D01*
X916339Y826800D01*
X901039Y811500D01*
X854000D01*
Y750500D01*
X924000D01*
Y788539D01*
X1027481Y892020D01*
X1032236Y903500D01*
Y1009275D01*
X1047725Y1024764D01*
X1092000D01*
Y1023000D01*
X1178100D01*
Y1009000D01*
X1092000D01*
Y979400D01*
X1071600D01*
Y953700D01*
X1139000D01*
Y928300D01*
X1071600D01*
Y902600D01*
X1092000D01*
Y873000D01*
X1122764D01*
Y491700D01*
X1127519Y480220D01*
X1195019Y412720D01*
X1206500Y407964D01*
X1235000D01*
Y392200D01*
X1305000D01*
Y456200D01*
X1235000D01*
Y440436D01*
X1213225D01*
X1155236Y498425D01*
Y873000D01*
X1178100D01*
Y860600D01*
X1190500D01*
Y774500D01*
X1192264D01*
Y640500D01*
X1197019Y629019D01*
X1507764Y318275D01*
Y316725D01*
X1334275Y143236D01*
X578225D01*
X460736Y260725D01*
Y564775D01*
X519481Y623519D01*
X524236Y635000D01*
Y699500D01*
X563000D01*
Y824500D01*
X453000D01*
Y699500D01*
X491764D01*
Y641725D01*
X433019Y582981D01*
X428264Y571500D01*
Y254000D01*
X433019Y242519D01*
X560019Y115519D01*
X571500Y110764D01*
X1341000D01*
X1352480Y115519D01*
X1520767Y283806D01*
X1532500Y278946D01*
Y264500D01*
X1642500D01*
Y301264D01*
X1804413D01*
X1805961Y293480D01*
X1810575Y286575D01*
X1817480Y281961D01*
X1825625Y280341D01*
X1857375D01*
X1865520Y281961D01*
X1872425Y286575D01*
X1877039Y293480D01*
X1878659Y301625D01*
Y333375D01*
X1877039Y341520D01*
X1874060Y349995D01*
X1881019Y356683D01*
X1887133Y360767D01*
X1896255Y374420D01*
X1899459Y390525D01*
Y393700D01*
X1841500D01*
X1783541D01*
Y390525D01*
X1786745Y374420D01*
X1795867Y360767D01*
X1801981Y356683D01*
X1808940Y349995D01*
X1805961Y341520D01*
X1804413Y333736D01*
X1642500D01*
Y389500D01*
X1532500D01*
Y357421D01*
X1519800Y352161D01*
X1224736Y647225D01*
Y754100D01*
X1245800D01*
Y821500D01*
X1271200D01*
Y754100D01*
X1296900D01*
Y763178D01*
X1309600Y768439D01*
X1512519Y565519D01*
X1524000Y560764D01*
X1532500D01*
Y499500D01*
X1642500D01*
Y624500D01*
X1532500D01*
Y609421D01*
X1519800Y604161D01*
X1361194Y762767D01*
X1366054Y774500D01*
X1376500D01*
Y805264D01*
X1390500D01*
Y774500D01*
X1403539D01*
X1473342Y704697D01*
X1484823Y699941D01*
X1615848D01*
X1819270Y496519D01*
X1830750Y491764D01*
X2025275D01*
X2079264Y437775D01*
Y397500D01*
X2065500D01*
Y337500D01*
X2125500D01*
Y397500D01*
X2111736D01*
Y444500D01*
X2106981Y455981D01*
X2075693Y487269D01*
X2084020Y496519D01*
X2095500Y491764D01*
X2392904D01*
X2393688Y485811D01*
X2402253Y465133D01*
X2415877Y447377D01*
X2433633Y433753D01*
X2454311Y425188D01*
X2476500Y422267D01*
X2498689Y425188D01*
X2519367Y433753D01*
X2537123Y447377D01*
X2550747Y465133D01*
X2559312Y485811D01*
X2562233Y508000D01*
X2559312Y530189D01*
X2550747Y550867D01*
X2537123Y568623D01*
X2519367Y582247D01*
X2498689Y590812D01*
X2476500Y593733D01*
X2454311Y590812D01*
X2433633Y582247D01*
X2415877Y568623D01*
X2402253Y550867D01*
X2393688Y530189D01*
X2392904Y524236D01*
X2102225D01*
X2075693Y550769D01*
X2084020Y560019D01*
X2095500Y555264D01*
X2147284D01*
X2158765Y560019D01*
X2170481Y571735D01*
X2175236Y583216D01*
Y1199775D01*
X2428869Y1453408D01*
X2433633Y1449753D01*
X2454311Y1441188D01*
X2476500Y1438267D01*
X2498689Y1441188D01*
X2519367Y1449753D01*
X2537123Y1463377D01*
X2550747Y1481133D01*
X2559312Y1501811D01*
X2562233Y1524000D01*
X2559312Y1546189D01*
X2550747Y1566867D01*
X2537123Y1584623D01*
X2519367Y1598247D01*
X2498689Y1606812D01*
X2476500Y1609733D01*
X2454311Y1606812D01*
X2433633Y1598247D01*
X2415877Y1584623D01*
X2402253Y1566867D01*
X2393688Y1546189D01*
X2390767Y1524000D01*
X2393688Y1501811D01*
X2402253Y1481133D01*
X2405908Y1476369D01*
X2147519Y1217981D01*
X2142764Y1206500D01*
Y589941D01*
X2140559Y587736D01*
X2102225D01*
X2092878Y597083D01*
X2094100Y602874D01*
X2097928Y609993D01*
X2105254Y611451D01*
X2113524Y616976D01*
X2119049Y625246D01*
X2120990Y635000D01*
X2119049Y644754D01*
X2113524Y653024D01*
X2105255Y658549D01*
X2102967Y660154D01*
X2102424Y661439D01*
X2105255Y674951D01*
X2113524Y680476D01*
X2119049Y688746D01*
X2120990Y698500D01*
X2119049Y708254D01*
X2113524Y716524D01*
X2105255Y722049D01*
X2102967Y723654D01*
X2102424Y724939D01*
X2105255Y738451D01*
X2113524Y743976D01*
X2119049Y752246D01*
X2120990Y762000D01*
X2119049Y771754D01*
X2113524Y780024D01*
X2105254Y785549D01*
X2095500Y787490D01*
X2093391Y787070D01*
X1658481Y1221981D01*
X1647000Y1226736D01*
X1476500D01*
Y1257500D01*
X1446900D01*
Y1277900D01*
X1421200D01*
Y1210500D01*
X1395800D01*
Y1277900D01*
X1374736D01*
Y1351775D01*
X1403725Y1380764D01*
X1714275D01*
X1755519Y1339520D01*
X1767000Y1334764D01*
X1800000D01*
Y1320500D01*
X1825264D01*
Y1206500D01*
X1830019Y1195019D01*
X1841500Y1190264D01*
X1848275D01*
X1888500Y1150039D01*
Y1113000D01*
X1948500D01*
Y1173000D01*
X1911461D01*
X1866481Y1217981D01*
X1857736Y1221603D01*
Y1320500D01*
X1883000D01*
Y1381500D01*
X1800000D01*
Y1367236D01*
X1773725D01*
X1732481Y1408481D01*
X1721000Y1413236D01*
X1397000D01*
X1385520Y1408481D01*
X1377193Y1417731D01*
X1403725Y1444264D01*
X1742775D01*
X1755519Y1431519D01*
X1767000Y1426764D01*
X1800000D01*
Y1412500D01*
X1883000D01*
Y1425364D01*
X1997000D01*
Y1408200D01*
X2049846D01*
X2054706Y1396467D01*
X2044039Y1385800D01*
X1997000D01*
Y1321800D01*
X2067000D01*
Y1362839D01*
X2170481Y1466319D01*
X2175236Y1477800D01*
Y1829784D01*
X2170481Y1841265D01*
X2052065Y1959681D01*
X2040584Y1964436D01*
X1876500D01*
Y1980200D01*
X1806500D01*
Y1964436D01*
X1614525D01*
X1603736Y1975225D01*
Y2286000D01*
X1598981Y2297481D01*
X1471981Y2424481D01*
X1460500Y2429236D01*
X1289941D01*
X1287736Y2431441D01*
Y2551782D01*
X1289524Y2552976D01*
X1295049Y2561246D01*
X1296990Y2571000D01*
Y2636000D01*
X1295049Y2645754D01*
X1289524Y2654024D01*
X1281254Y2659549D01*
X1271500Y2661490D01*
X1261746Y2659549D01*
X1260265Y2658560D01*
X1244546Y2661222D01*
X1243904Y2661739D01*
X1239232Y2668732D01*
X1224214Y2678766D01*
X1219200Y2679763D01*
D02*
G37*
G36*
X2087400Y1595100D02*
X2044700D01*
Y1555400D01*
X2087400D01*
Y1595100D01*
D02*
G37*
G36*
X2019300D02*
X1976600D01*
Y1555400D01*
X2019300D01*
Y1595100D01*
D02*
G37*
G36*
X190500Y1609733D02*
X168311Y1606812D01*
X147633Y1598247D01*
X129877Y1584623D01*
X116253Y1566867D01*
X107688Y1546189D01*
X104767Y1524000D01*
X107688Y1501811D01*
X116253Y1481133D01*
X129877Y1463377D01*
X147633Y1449753D01*
X168311Y1441188D01*
X190500Y1438267D01*
X212689Y1441188D01*
X233367Y1449753D01*
X251123Y1463377D01*
X264747Y1481133D01*
X273312Y1501811D01*
X276233Y1524000D01*
X273312Y1546189D01*
X264747Y1566867D01*
X251123Y1584623D01*
X233367Y1598247D01*
X212689Y1606812D01*
X190500Y1609733D01*
D02*
G37*
G36*
X571500Y1485990D02*
X561746Y1484049D01*
X553476Y1478524D01*
X547951Y1470254D01*
X546010Y1460500D01*
X547951Y1450746D01*
X553476Y1442476D01*
X555264Y1441282D01*
Y1326500D01*
X536500D01*
Y1260500D01*
X606500D01*
Y1326500D01*
X587736D01*
Y1441282D01*
X589524Y1442476D01*
X595049Y1450746D01*
X596990Y1460500D01*
X595049Y1470254D01*
X589524Y1478524D01*
X581254Y1484049D01*
X571500Y1485990D01*
D02*
G37*
G36*
X841375Y1262709D02*
X809625D01*
X801480Y1261089D01*
X794575Y1256475D01*
X789961Y1249570D01*
X788602Y1242736D01*
X698500D01*
X687019Y1237981D01*
X671775Y1222736D01*
X606500D01*
Y1239500D01*
X536500D01*
Y1196461D01*
X496519Y1156481D01*
X491764Y1145000D01*
Y1059500D01*
X453000D01*
Y934500D01*
X563000D01*
Y1059500D01*
X524236D01*
Y1138275D01*
X559461Y1173500D01*
X606500D01*
Y1190264D01*
X678500D01*
X689981Y1195019D01*
X705225Y1210264D01*
X788341D01*
Y1209675D01*
X789961Y1201530D01*
X794575Y1194625D01*
X801480Y1190011D01*
X809625Y1188391D01*
X841375D01*
X849520Y1190011D01*
X856425Y1194625D01*
X861039Y1201530D01*
X862659Y1209675D01*
Y1241425D01*
X861039Y1249570D01*
X856425Y1256475D01*
X849520Y1261089D01*
X841375Y1262709D01*
D02*
G37*
G36*
X2476500Y1355733D02*
X2454311Y1352812D01*
X2433633Y1344247D01*
X2415877Y1330623D01*
X2402253Y1312867D01*
X2393688Y1292189D01*
X2392904Y1286236D01*
X2349500D01*
X2338019Y1281481D01*
X2211019Y1154481D01*
X2206264Y1143000D01*
Y654218D01*
X2204476Y653024D01*
X2198951Y644754D01*
X2197010Y635000D01*
X2198951Y625246D01*
X2204476Y616976D01*
X2212746Y611451D01*
X2222500Y609510D01*
X2232254Y611451D01*
X2240524Y616976D01*
X2246049Y625246D01*
X2247990Y635000D01*
X2246049Y644754D01*
X2240524Y653024D01*
X2238736Y654218D01*
Y1136275D01*
X2356225Y1253764D01*
X2392904D01*
X2393688Y1247811D01*
X2402253Y1227133D01*
X2415877Y1209377D01*
X2433633Y1195753D01*
X2454311Y1187188D01*
X2476500Y1184267D01*
X2498689Y1187188D01*
X2519367Y1195753D01*
X2537123Y1209377D01*
X2550747Y1227133D01*
X2559312Y1247811D01*
X2562233Y1270000D01*
X2559312Y1292189D01*
X2550747Y1312867D01*
X2537123Y1330623D01*
X2519367Y1344247D01*
X2498689Y1352812D01*
X2476500Y1355733D01*
D02*
G37*
G36*
X2068900Y1193400D02*
X2031199D01*
Y1155700D01*
X2068900D01*
Y1193400D01*
D02*
G37*
G36*
X2005799D02*
X1968100D01*
Y1155700D01*
X2005799D01*
Y1193400D01*
D02*
G37*
G36*
X2068900Y1130300D02*
X2031199D01*
Y1092600D01*
X2068900D01*
Y1130300D01*
D02*
G37*
G36*
X2005799D02*
X1968100D01*
Y1092600D01*
X2005799D01*
Y1130300D01*
D02*
G37*
G36*
X2476500Y1101733D02*
X2454311Y1098812D01*
X2433633Y1090247D01*
X2415877Y1076623D01*
X2402253Y1058867D01*
X2393688Y1038189D01*
X2392904Y1032236D01*
X2349500D01*
X2338019Y1027481D01*
X2274519Y963981D01*
X2269764Y952500D01*
Y717718D01*
X2267976Y716524D01*
X2262451Y708254D01*
X2260510Y698500D01*
X2262451Y688746D01*
X2267976Y680476D01*
X2276246Y674951D01*
X2286000Y673010D01*
X2295754Y674951D01*
X2304024Y680476D01*
X2309549Y688746D01*
X2311490Y698500D01*
X2309549Y708254D01*
X2304024Y716524D01*
X2302236Y717718D01*
Y945775D01*
X2356225Y999764D01*
X2392904D01*
X2393688Y993811D01*
X2402253Y973133D01*
X2415877Y955377D01*
X2433633Y941753D01*
X2454311Y933188D01*
X2476500Y930267D01*
X2498689Y933188D01*
X2519367Y941753D01*
X2537123Y955377D01*
X2550747Y973133D01*
X2559312Y993811D01*
X2562233Y1016000D01*
X2559312Y1038189D01*
X2550747Y1058867D01*
X2537123Y1076623D01*
X2519367Y1090247D01*
X2498689Y1098812D01*
X2476500Y1101733D01*
D02*
G37*
G36*
X190500D02*
X168311Y1098812D01*
X147633Y1090247D01*
X129877Y1076623D01*
X116253Y1058867D01*
X107688Y1038189D01*
X104767Y1016000D01*
X107688Y993811D01*
X116253Y973133D01*
X129877Y955377D01*
X147633Y941753D01*
X168311Y933188D01*
X190500Y930267D01*
X212689Y933188D01*
X233367Y941753D01*
X251123Y955377D01*
X264747Y973133D01*
X273312Y993811D01*
X276233Y1016000D01*
X273312Y1038189D01*
X264747Y1058867D01*
X251123Y1076623D01*
X233367Y1090247D01*
X212689Y1098812D01*
X190500Y1101733D01*
D02*
G37*
G36*
X2476500Y847733D02*
X2454311Y844812D01*
X2433633Y836247D01*
X2415877Y822623D01*
X2402253Y804867D01*
X2393688Y784189D01*
X2390767Y762000D01*
X2393688Y739811D01*
X2402253Y719133D01*
X2415877Y701377D01*
X2433633Y687753D01*
X2454311Y679188D01*
X2476500Y676267D01*
X2498689Y679188D01*
X2519367Y687753D01*
X2537123Y701377D01*
X2550747Y719133D01*
X2559312Y739811D01*
X2562233Y762000D01*
X2559312Y784189D01*
X2550747Y804867D01*
X2537123Y822623D01*
X2519367Y836247D01*
X2498689Y844812D01*
X2476500Y847733D01*
D02*
G37*
G36*
X190500D02*
X168311Y844812D01*
X147633Y836247D01*
X129877Y822623D01*
X116253Y804867D01*
X107688Y784189D01*
X104767Y762000D01*
X107688Y739811D01*
X116253Y719133D01*
X129877Y701377D01*
X147633Y687753D01*
X168311Y679188D01*
X190500Y676267D01*
X212689Y679188D01*
X233367Y687753D01*
X251123Y701377D01*
X264747Y719133D01*
X273312Y739811D01*
X276233Y762000D01*
X273312Y784189D01*
X264747Y804867D01*
X251123Y822623D01*
X233367Y836247D01*
X212689Y844812D01*
X190500Y847733D01*
D02*
G37*
G36*
X760400Y526900D02*
X710201D01*
Y476200D01*
X760400D01*
Y526900D01*
D02*
G37*
G36*
X684801D02*
X634600D01*
Y476200D01*
X684801D01*
Y526900D01*
D02*
G37*
G36*
X939400Y481400D02*
X901700D01*
Y443700D01*
X939400D01*
Y481400D01*
D02*
G37*
G36*
X876300D02*
X838600D01*
Y443700D01*
X876300D01*
Y481400D01*
D02*
G37*
G36*
X190500Y593733D02*
X168311Y590812D01*
X147633Y582247D01*
X129877Y568623D01*
X116253Y550867D01*
X107688Y530189D01*
X104767Y508000D01*
X107688Y485811D01*
X116253Y465133D01*
X129877Y447377D01*
X147633Y433753D01*
X168311Y425188D01*
X190500Y422267D01*
X212689Y425188D01*
X233367Y433753D01*
X251123Y447377D01*
X264747Y465133D01*
X273312Y485811D01*
X276233Y508000D01*
X273312Y530189D01*
X264747Y550867D01*
X251123Y568623D01*
X233367Y582247D01*
X212689Y590812D01*
X190500Y593733D01*
D02*
G37*
G36*
X728500Y805500D02*
X668500D01*
Y745500D01*
X682264D01*
Y705225D01*
X561019Y583981D01*
X556264Y572500D01*
Y506500D01*
X530000D01*
Y420500D01*
X615000D01*
Y506500D01*
X588736D01*
Y565775D01*
X709981Y687019D01*
X714736Y698500D01*
Y745500D01*
X728500D01*
Y805500D01*
D02*
G37*
G36*
X1857375Y464359D02*
X1854200D01*
Y419100D01*
X1899459D01*
Y422275D01*
X1896255Y438380D01*
X1887133Y452033D01*
X1873480Y461155D01*
X1857375Y464359D01*
D02*
G37*
G36*
X1828800D02*
X1825625D01*
X1809520Y461155D01*
X1795867Y452033D01*
X1786745Y438380D01*
X1783541Y422275D01*
Y419100D01*
X1828800D01*
Y464359D01*
D02*
G37*
G36*
X760400Y450800D02*
X710201D01*
Y400100D01*
X760400D01*
Y450800D01*
D02*
G37*
G36*
X684801D02*
X634600D01*
Y400100D01*
X684801D01*
Y450800D01*
D02*
G37*
G36*
X939400Y418300D02*
X901700D01*
Y380600D01*
X939400D01*
Y418300D01*
D02*
G37*
G36*
X876300D02*
X838600D01*
Y380600D01*
X876300D01*
Y418300D01*
D02*
G37*
G36*
X1305000Y369800D02*
X1235000D01*
Y328761D01*
X1193375Y287136D01*
X955825D01*
X919000Y323961D01*
Y361000D01*
X859000D01*
Y347236D01*
X730000D01*
X718520Y342481D01*
X717539Y341500D01*
X655000D01*
Y314736D01*
X615000D01*
Y341500D01*
X530000D01*
Y255500D01*
X615000D01*
Y282264D01*
X655000D01*
Y255500D01*
X740000D01*
Y314764D01*
X859000D01*
Y301000D01*
X896039D01*
X937619Y259420D01*
X949100Y254664D01*
X1200100D01*
X1211581Y259420D01*
X1257961Y305800D01*
X1305000D01*
Y369800D01*
D02*
G37*
G36*
X2145900Y317900D02*
X2108200D01*
Y280200D01*
X2145900D01*
Y317900D01*
D02*
G37*
G36*
X2082800D02*
X2045100D01*
Y280200D01*
X2082800D01*
Y317900D01*
D02*
G37*
G36*
X2145900Y254800D02*
X2108200D01*
Y217100D01*
X2145900D01*
Y254800D01*
D02*
G37*
G36*
X2082800D02*
X2045100D01*
Y217100D01*
X2082800D01*
Y254800D01*
D02*
G37*
G36*
X2561500Y339000D02*
X2391500D01*
Y169000D01*
X2561500D01*
Y339000D01*
D02*
G37*
G36*
X275500D02*
X105500D01*
Y169000D01*
X275500D01*
Y339000D01*
D02*
G37*
%LPD*%
D10*
X572500Y298500D02*
D03*
Y463500D02*
D03*
X697500Y298500D02*
D03*
Y463500D02*
D03*
D11*
X317500Y2496800D02*
D03*
Y2583200D02*
D03*
X1270000Y424200D02*
D03*
Y337800D02*
D03*
X508000Y1821200D02*
D03*
Y1734800D02*
D03*
X698500Y1925300D02*
D03*
Y2011700D02*
D03*
X952500Y2202200D02*
D03*
Y2115800D02*
D03*
X1460500Y2202200D02*
D03*
Y2115800D02*
D03*
X1016000Y1757700D02*
D03*
Y1671300D02*
D03*
X1841500Y1861800D02*
D03*
Y1948200D02*
D03*
X2032000Y1607800D02*
D03*
Y1694200D02*
D03*
Y1353800D02*
D03*
Y1440200D02*
D03*
D12*
X63500Y2503500D02*
D03*
Y2603500D02*
D03*
X1905000Y2680500D02*
D03*
Y2780500D02*
D03*
X698500Y875500D02*
D03*
Y775500D02*
D03*
X2095500Y267500D02*
D03*
Y367500D02*
D03*
X889000Y431000D02*
D03*
Y331000D02*
D03*
X1270000Y1764500D02*
D03*
Y1664500D02*
D03*
D13*
X889000Y2559000D02*
D03*
Y2648000D02*
D03*
X698500Y2940000D02*
D03*
Y3029000D02*
D03*
X889000Y870000D02*
D03*
Y781000D02*
D03*
D14*
X635000Y2646000D02*
D03*
Y2561000D02*
D03*
X508000Y2963000D02*
D03*
Y3048000D02*
D03*
D15*
X2159000Y2684500D02*
D03*
Y2776500D02*
D03*
X698500Y1668500D02*
D03*
Y1760500D02*
D03*
X1206500Y2187500D02*
D03*
Y2095500D02*
D03*
X1841500Y1443000D02*
D03*
Y1351000D02*
D03*
D16*
X1672500Y2730500D02*
D03*
X1502500D02*
D03*
X2018500Y1143000D02*
D03*
X1918500D02*
D03*
D17*
X1587500Y2635500D02*
D03*
Y2825500D02*
D03*
D18*
X1841500Y406400D02*
D03*
Y317500D02*
D03*
X825500Y1314450D02*
D03*
Y1225550D02*
D03*
D19*
X1587500Y562000D02*
D03*
Y327000D02*
D03*
X508000Y997000D02*
D03*
Y762000D02*
D03*
D20*
X571500Y1293500D02*
D03*
Y1206500D02*
D03*
X1841500Y1607500D02*
D03*
Y1694500D02*
D03*
D21*
X1524000Y1760500D02*
D03*
Y1668500D02*
D03*
D22*
X1333500Y1016000D02*
D03*
D23*
X1208500Y1210500D02*
D03*
X1258500D02*
D03*
X1308500D02*
D03*
X1358500D02*
D03*
X1408500D02*
D03*
X1458500D02*
D03*
Y821500D02*
D03*
X1408500D02*
D03*
X1358500D02*
D03*
X1308500D02*
D03*
X1258500D02*
D03*
X1208500D02*
D03*
D24*
X1528000Y1141000D02*
D03*
Y1091000D02*
D03*
Y1041000D02*
D03*
Y991000D02*
D03*
Y941000D02*
D03*
Y891000D02*
D03*
X1139000D02*
D03*
Y941000D02*
D03*
Y991000D02*
D03*
Y1041000D02*
D03*
Y1091000D02*
D03*
Y1141000D02*
D03*
D25*
X1141500Y2803500D02*
D03*
X1206500D02*
D03*
X1271500D02*
D03*
Y2603500D02*
D03*
X1206500D02*
D03*
X1141500D02*
D03*
D26*
X204100Y2503500D02*
Y2907400D01*
X190500Y2921000D02*
X204100Y2907400D01*
X63500Y2503500D02*
X204100D01*
X210800Y2496800D01*
X317500D01*
Y2583200D02*
Y2667000D01*
X825500Y2794000D02*
X1016000Y2984500D01*
X317500Y2667000D02*
X444500Y2794000D01*
X825500D01*
X635000Y2646000D02*
X637000Y2648000D01*
X889000D01*
Y2794000D01*
Y2476500D02*
Y2559000D01*
X2148000Y2776500D02*
X2159000D01*
X1813000Y3111500D02*
X2148000Y2776500D01*
X1907000Y2682500D02*
X2157000D01*
X1905000Y2680500D02*
X1907000Y2682500D01*
X2157000D02*
X2159000Y2684500D01*
X1905000Y2603500D02*
Y2680500D01*
X1587500Y2635500D02*
X1592500D01*
X1688000Y2540000D01*
X1841500D01*
X997000Y3029000D02*
X1016000Y3048000D01*
X698500Y3029000D02*
X997000D01*
X508000Y3048000D02*
X675000D01*
X694000Y3029000D01*
X698500D01*
X591713Y2940000D02*
X698500D01*
X509213Y2857500D02*
X591713Y2940000D01*
X1016000Y1016000D02*
X1041000Y1041000D01*
X1139000D01*
X1016000Y903500D02*
Y1016000D01*
X889000Y781000D02*
X893500D01*
X1016000Y903500D01*
X701250Y872750D02*
X886250D01*
X889000Y870000D01*
X698500Y875500D02*
X701250Y872750D01*
X698500Y698500D02*
Y775500D01*
X1528000Y991000D02*
X1612500D01*
X2095500Y508000D02*
X2476500D01*
X1612500Y991000D02*
X2095500Y508000D01*
X1484823Y716177D02*
X1622573D01*
X1458500Y821500D02*
X1591500D01*
X1714500Y698500D01*
X1408500Y792500D02*
X1484823Y716177D01*
X1622573D02*
X1830750Y508000D01*
X2032000D01*
X508000Y635000D02*
Y762000D01*
Y1145000D02*
X569500Y1206500D01*
X571500D01*
X508000Y997000D02*
Y1145000D01*
X824550Y1226500D02*
X825500Y1225550D01*
X698500Y1226500D02*
X824550D01*
X825500Y1314450D02*
X936550D01*
X571500Y1206500D02*
X678500D01*
X698500Y1226500D01*
X508000Y1821200D02*
X511000D01*
X574500Y1757700D01*
X598300D01*
X508000Y1821200D02*
Y2032000D01*
X598300Y1757700D02*
X687500Y1668500D01*
X698500D01*
Y1760500D02*
Y1925300D01*
Y2011700D02*
X805200D01*
X952500Y2115800D02*
X1036300D01*
X892500Y2099000D02*
X935700D01*
X805200Y2011700D02*
X892500Y2099000D01*
X935700D02*
X952500Y2115800D01*
X1437200Y2095500D02*
X1457500Y2115800D01*
X1460500D01*
X1206500Y2095500D02*
X1437200D01*
X1213850Y2194850D02*
X1453150D01*
X1460500Y2202200D01*
X1206500Y2187500D02*
X1213850Y2194850D01*
X1036300Y2115800D02*
X1108000Y2187500D01*
X1206500D01*
X1460500Y1778000D02*
X1462500Y1776000D01*
X1460500Y1778000D02*
Y2115800D01*
X2031550Y1694350D02*
X2031700Y1694500D01*
X1019400Y1667900D02*
X1266600D01*
X1016000Y1671300D02*
X1019400Y1667900D01*
X1266600D02*
X1270000Y1664500D01*
X1272000Y1666500D02*
X1522000D01*
X1524000Y1668500D01*
X1270000Y1664500D02*
X1272000Y1666500D01*
X1270000Y1460500D02*
Y1664500D01*
X1524000Y1760500D02*
X1710000D01*
X1776000Y1694500D01*
X1462500Y1776000D02*
X1508500D01*
X1524000Y1760500D01*
X1841650Y1694350D02*
X2031550D01*
X1841500Y1694500D02*
X1841650Y1694350D01*
X1776000Y1694500D02*
X1841500D01*
X1671000Y1607500D02*
X1841500D01*
X2031700Y1694500D02*
X2032000Y1694200D01*
X2035000Y1353800D02*
X2159000Y1477800D01*
X2032000Y1353800D02*
X2035000D01*
X2030600Y1441600D02*
X2032000Y1440200D01*
X1841500Y1443000D02*
X1842900Y1441600D01*
X2030600D01*
X1841500Y1206500D02*
Y1351000D01*
X1767000D02*
X1841500D01*
X1767000Y1443000D02*
X1841500D01*
X1749500Y1460500D02*
X1767000Y1443000D01*
X1841500Y1948200D02*
X2040584D01*
X1607800D02*
X1841500D01*
X508000Y3048000D02*
X529000Y3027000D01*
X1597000Y317500D02*
X1841500D01*
X1587500Y327000D02*
X1597000Y317500D01*
X1341000Y127000D02*
X1524000Y310000D01*
Y325000D01*
X1585500D01*
X1587500Y327000D01*
X1208500Y640500D02*
X1524000Y325000D01*
X571500Y127000D02*
X1341000D01*
X444500Y254000D02*
X571500Y127000D01*
X444500Y254000D02*
Y571500D01*
X508000Y635000D01*
X1524000Y577000D02*
X1572500D01*
X1587500Y562000D01*
X572500Y463500D02*
Y572500D01*
X697500Y299000D02*
X725000Y326500D01*
X725500D02*
X730000Y331000D01*
X697500Y298500D02*
Y299000D01*
X725000Y326500D02*
X725500D01*
X730000Y331000D02*
X889000D01*
X572500Y298500D02*
X697500D01*
X1206500Y424200D02*
X1270000D01*
X1139000Y491700D02*
X1206500Y424200D01*
X1200100Y270900D02*
X1267000Y337800D01*
X949100Y270900D02*
X1200100D01*
X1267000Y337800D02*
X1270000D01*
X889000Y331000D02*
X949100Y270900D01*
X2032000Y508000D02*
X2095500Y444500D01*
Y367500D02*
Y444500D01*
X1841500Y1206500D02*
X1855000D01*
X1918500Y1143000D01*
X1208500Y1210500D02*
Y1399000D01*
X1258500Y1210500D02*
Y1385500D01*
X1308500Y1210500D02*
Y1372000D01*
X1358500Y1210500D02*
Y1358500D01*
X1110000Y1141000D02*
X1139000D01*
Y491700D02*
Y891000D01*
X1208500Y640500D02*
Y821500D01*
X1358500D02*
X1408500D01*
X1308500Y792500D02*
Y821500D01*
Y792500D02*
X1524000Y577000D01*
X1408500Y792500D02*
Y821500D01*
X1528000Y891000D02*
X1530000Y889000D01*
X1587500D01*
X1528000Y941000D02*
X1599000D01*
X1528000Y1041000D02*
X1626000D01*
X1528000Y1091000D02*
X1639500D01*
X1528000Y1141000D02*
X1653000D01*
X1458500Y1210500D02*
X1647000D01*
X571500Y1293500D02*
Y1460500D01*
X381000D02*
Y1968500D01*
X190500Y1270000D02*
X381000Y1460500D01*
Y1968500D02*
X889000Y2476500D01*
Y2413000D02*
X1129784D01*
X508000Y2032000D02*
X889000Y2413000D01*
X190500Y2921000D02*
X381000Y3111500D01*
X254000Y2857500D02*
X509213D01*
X381000Y3111500D02*
X1813000D01*
X1587500Y889000D02*
X1905000Y571500D01*
X1599000Y941000D02*
X1905000Y635000D01*
X2159000Y583216D02*
Y1206500D01*
X2147284Y571500D02*
X2159000Y583216D01*
Y1206500D02*
X2476500Y1524000D01*
X1647000Y1210500D02*
X2095500Y762000D01*
X1653000Y1141000D02*
X2095500Y698500D01*
X2349500Y1016000D02*
X2476500D01*
X2286000Y952500D02*
X2349500Y1016000D01*
X2286000Y698500D02*
Y952500D01*
X2349500Y1270000D02*
X2476500D01*
X2222500Y1143000D02*
X2349500Y1270000D01*
X2222500Y635000D02*
Y1143000D01*
X1639500Y1091000D02*
X2095500Y635000D01*
X2040584Y1948200D02*
X2159000Y1829784D01*
Y1477800D02*
Y1829784D01*
X1587500Y1968500D02*
Y2286000D01*
Y1968500D02*
X1607800Y1948200D01*
X1358500Y1358500D02*
X1397000Y1397000D01*
X1721000D01*
X1767000Y1351000D01*
X1308500Y1372000D02*
X1397000Y1460500D01*
X1749500D01*
X1626000Y1041000D02*
X2095500Y571500D01*
X2147284D01*
X1258500Y1385500D02*
X1397000Y1524000D01*
X1587500D01*
X1671000Y1607500D01*
X1208500Y1399000D02*
X1270000Y1460500D01*
X1016000Y3048000D02*
X1143000D01*
X1270000Y2921000D01*
X1271500Y2424716D02*
X1283216Y2413000D01*
X1460500D02*
X1587500Y2286000D01*
X1283216Y2413000D02*
X1460500D01*
X1841500Y2540000D02*
X1905000Y2603500D01*
X1271500Y2424716D02*
Y2603500D01*
X1141500Y2424716D02*
Y2603500D01*
X1129784Y2413000D02*
X1141500Y2424716D01*
X1270000Y2805000D02*
Y2921000D01*
Y2805000D02*
X1271500Y2803500D01*
X1016000Y2984500D02*
X1143000D01*
X1141500Y2803500D02*
X1143000Y2805000D01*
Y2909284D01*
X1131284Y2921000D02*
X1143000Y2909284D01*
X1016000Y2921000D02*
X1131284D01*
X889000Y2794000D02*
X1016000Y2921000D01*
X1206500Y2803500D02*
Y2921000D01*
X1143000Y2984500D02*
X1206500Y2921000D01*
X936550Y1314450D02*
X1110000Y1141000D01*
X572500Y572500D02*
X698500Y698500D01*
X1308500Y821500D02*
X1311500Y818500D01*
D27*
X190500Y2032000D02*
D03*
Y1778000D02*
D03*
Y1270000D02*
D03*
Y762000D02*
D03*
Y508000D02*
D03*
Y1016000D02*
D03*
Y1524000D02*
D03*
X2476500D02*
D03*
Y1016000D02*
D03*
Y508000D02*
D03*
Y762000D02*
D03*
Y1270000D02*
D03*
Y1778000D02*
D03*
Y2032000D02*
D03*
D28*
X190500Y254000D02*
D03*
X2476500D02*
D03*
D29*
X3124008Y3066005D02*
D03*
X3024008Y2866004D02*
D03*
X3124008Y2666004D02*
D03*
X3024008Y2466004D02*
D03*
X3124008Y2266004D02*
D03*
X3024008Y2066004D02*
D03*
X3124008Y1866004D02*
D03*
X3024008Y1666004D02*
D03*
X3124008Y1466004D02*
D03*
X3024008Y1266004D02*
D03*
X3124008Y1066003D02*
D03*
X3024008Y866003D02*
D03*
X3124008Y666003D02*
D03*
X3024008Y466003D02*
D03*
X3124008Y266003D02*
D03*
X3024008Y66003D02*
D03*
X2924008Y3066005D02*
D03*
X2824008Y2866004D02*
D03*
X2924008Y2666004D02*
D03*
X2824008Y2466004D02*
D03*
X2924008Y2266004D02*
D03*
X2824008Y2066004D02*
D03*
X2924008Y1866004D02*
D03*
X2824008Y1666004D02*
D03*
X2924008Y1466004D02*
D03*
Y1066003D02*
D03*
Y666003D02*
D03*
Y266003D02*
D03*
X2824008Y66003D02*
D03*
X2724008Y3066005D02*
D03*
X2624007Y2866004D02*
D03*
X2724008Y2666004D02*
D03*
X2624007Y2466004D02*
D03*
X2724008Y2266004D02*
D03*
X2624007Y2066004D02*
D03*
X2724008Y1866004D02*
D03*
X2624007Y1666004D02*
D03*
X2724008Y1466004D02*
D03*
X2624007Y1266004D02*
D03*
X2724008Y1066003D02*
D03*
X2624007Y866003D02*
D03*
X2724008Y666003D02*
D03*
X2624007Y466003D02*
D03*
X2724008Y266003D02*
D03*
X2524007Y3066005D02*
D03*
X2424007Y2866004D02*
D03*
X2524007Y2666004D02*
D03*
X2424007Y2466004D02*
D03*
X2524007Y2266004D02*
D03*
X2424007Y1666004D02*
D03*
Y866003D02*
D03*
X2524007Y666003D02*
D03*
X2324007Y3066005D02*
D03*
X2224007Y2866004D02*
D03*
X2324007Y2666004D02*
D03*
X2224007Y2466004D02*
D03*
X2324007Y2266004D02*
D03*
X2224007Y2066004D02*
D03*
X2324007Y1866004D02*
D03*
X2224007Y1666004D02*
D03*
X2324007Y1466004D02*
D03*
Y1066003D02*
D03*
Y666003D02*
D03*
X2224007Y466003D02*
D03*
X2324007Y266003D02*
D03*
X2224007Y66003D02*
D03*
X2124007Y3066005D02*
D03*
X2024007Y2466004D02*
D03*
X2124007Y2266004D02*
D03*
X2024007Y2066004D02*
D03*
Y1266004D02*
D03*
Y66003D02*
D03*
X1924007Y3066005D02*
D03*
X1824007Y2866004D02*
D03*
Y2466004D02*
D03*
X1924007Y2266004D02*
D03*
X1824007Y2066004D02*
D03*
X1924007Y1866004D02*
D03*
Y1066003D02*
D03*
Y266003D02*
D03*
X1824007Y66003D02*
D03*
X1724007Y3066005D02*
D03*
X1624007Y2466004D02*
D03*
X1724007Y2266004D02*
D03*
Y1866004D02*
D03*
X1624007Y1666004D02*
D03*
Y1266004D02*
D03*
X1724007Y266003D02*
D03*
X1524007Y3066005D02*
D03*
X1424007Y2866004D02*
D03*
Y2466004D02*
D03*
X1524007Y2266004D02*
D03*
Y1866004D02*
D03*
X1424007Y66003D02*
D03*
X1324007Y3066005D02*
D03*
Y2666004D02*
D03*
X1224007Y2466004D02*
D03*
X1324007Y2266004D02*
D03*
Y1866004D02*
D03*
X1224007Y66003D02*
D03*
X1024007Y2866004D02*
D03*
Y2466004D02*
D03*
X1124007Y2266004D02*
D03*
X1024007Y2066004D02*
D03*
X1124007Y1866004D02*
D03*
Y1466004D02*
D03*
X1024007Y466003D02*
D03*
X924007Y3066005D02*
D03*
X824006Y2866004D02*
D03*
Y2466004D02*
D03*
X924007Y1866004D02*
D03*
X824006Y1666004D02*
D03*
X924007Y1466004D02*
D03*
Y1066003D02*
D03*
X624006Y2866004D02*
D03*
Y2466004D02*
D03*
Y2066004D02*
D03*
Y1666004D02*
D03*
X724006Y1466004D02*
D03*
Y1066003D02*
D03*
X524006Y2666004D02*
D03*
X424006Y2466004D02*
D03*
X524006Y2266004D02*
D03*
X424006Y2066004D02*
D03*
Y1666004D02*
D03*
X524006Y1466004D02*
D03*
X424006Y1266004D02*
D03*
Y866003D02*
D03*
Y66003D02*
D03*
X324006Y2266004D02*
D03*
Y1866004D02*
D03*
X224006Y1666004D02*
D03*
X324006Y1466004D02*
D03*
Y1066003D02*
D03*
Y266003D02*
D03*
X224006Y66003D02*
D03*
X124006Y3066005D02*
D03*
Y2266004D02*
D03*
X24006Y2066004D02*
D03*
X124006Y1866004D02*
D03*
X24006Y1666004D02*
D03*
Y1266004D02*
D03*
X124006Y666003D02*
D03*
X24006Y466003D02*
D03*
Y66003D02*
D03*
X571500Y1460500D02*
D03*
X254000Y2857500D02*
D03*
X1714500Y698500D02*
D03*
X1905000Y571500D02*
D03*
Y635000D02*
D03*
X2095500Y762000D02*
D03*
X2286000Y698500D02*
D03*
X2095500D02*
D03*
X2222500Y635000D02*
D03*
X2095500D02*
D03*
%TF.MD5,35c5b27771eab134a209391750a900be*%
M02*
