%TF.GenerationSoftware,Altium Limited,Altium Designer,22.6.1 (34)*%
G04 Layer_Color=8388736*
%FSLAX45Y45*%
%MOMM*%
%TF.SameCoordinates,421C64DB-711B-49BE-949A-821E8169F4DF*%
%TF.FilePolarity,Negative*%
%TF.FileFunction,Soldermask,Top*%
%TF.Part,Single*%
G01*
G75*
%TA.AperFunction,SMDPad,CuDef*%
%ADD16R,0.50000X0.50000*%
%ADD17R,0.50000X0.40000*%
G04:AMPARAMS|DCode=35|XSize=0.8382mm|YSize=0.8382mm|CornerRadius=0.26035mm|HoleSize=0mm|Usage=FLASHONLY|Rotation=90.000|XOffset=0mm|YOffset=0mm|HoleType=Round|Shape=RoundedRectangle|*
%AMROUNDEDRECTD35*
21,1,0.83820,0.31750,0,0,90.0*
21,1,0.31750,0.83820,0,0,90.0*
1,1,0.52070,0.15875,0.15875*
1,1,0.52070,0.15875,-0.15875*
1,1,0.52070,-0.15875,-0.15875*
1,1,0.52070,-0.15875,0.15875*
%
%ADD35ROUNDEDRECTD35*%
%ADD37R,0.80320X0.71320*%
%ADD38R,0.80320X0.76320*%
%TA.AperFunction,ComponentPad*%
%ADD39C,1.80320*%
%ADD40R,1.80320X1.80320*%
%TA.AperFunction,ViaPad*%
%ADD41C,0.60320*%
%TA.AperFunction,SMDPad,CuDef*%
%ADD45R,0.95320X0.96320*%
%ADD46R,0.80320X0.74320*%
%ADD47R,0.70320X0.70320*%
%ADD48R,0.87320X0.82320*%
%ADD49R,0.93320X0.71320*%
%ADD50R,1.20320X1.35320*%
%ADD51R,0.70320X0.70320*%
%ADD52R,0.83320X0.71320*%
%ADD53R,2.80320X2.80320*%
%ADD54R,0.46320X1.04320*%
%ADD55R,1.04320X0.46320*%
%ADD56O,0.60320X1.25320*%
G36*
X1612500Y2805500D02*
X1562500D01*
Y2845500D01*
X1612500D01*
Y2805500D01*
D02*
G37*
G36*
X1702500Y2675500D02*
X1655500D01*
X1632500Y2698500D01*
Y2762500D01*
X1655500Y2785500D01*
X1702500D01*
Y2675500D01*
D02*
G37*
G36*
X1542500Y2762500D02*
Y2698500D01*
X1519500Y2675500D01*
X1472500D01*
Y2785500D01*
X1519500D01*
X1542500Y2762500D01*
D02*
G37*
G36*
X1612500Y2615500D02*
X1562500D01*
Y2655500D01*
X1612500D01*
Y2615500D01*
D02*
G37*
D16*
X1672500Y2730500D02*
D03*
X1502500D02*
D03*
D17*
X1587500Y2635500D02*
D03*
Y2825500D02*
D03*
D35*
X1841500Y406400D02*
D03*
Y317500D02*
D03*
X825500Y1314450D02*
D03*
Y1225550D02*
D03*
D37*
X889000Y2559000D02*
D03*
Y2648000D02*
D03*
X698500Y2940000D02*
D03*
Y3029000D02*
D03*
X889000Y870000D02*
D03*
Y781000D02*
D03*
D38*
X571500Y1293500D02*
D03*
Y1206500D02*
D03*
X1841500Y1607500D02*
D03*
Y1694500D02*
D03*
D39*
X190500Y2032000D02*
D03*
Y1778000D02*
D03*
Y1270000D02*
D03*
Y762000D02*
D03*
Y508000D02*
D03*
Y1016000D02*
D03*
Y1524000D02*
D03*
X2476500D02*
D03*
Y1016000D02*
D03*
Y508000D02*
D03*
Y762000D02*
D03*
Y1270000D02*
D03*
Y1778000D02*
D03*
Y2032000D02*
D03*
D40*
X190500Y254000D02*
D03*
X2476500D02*
D03*
D41*
X3124008Y3066005D02*
D03*
X3024008Y2866004D02*
D03*
X3124008Y2666004D02*
D03*
X3024008Y2466004D02*
D03*
X3124008Y2266004D02*
D03*
X3024008Y2066004D02*
D03*
X3124008Y1866004D02*
D03*
X3024008Y1666004D02*
D03*
X3124008Y1466004D02*
D03*
X3024008Y1266004D02*
D03*
X3124008Y1066003D02*
D03*
X3024008Y866003D02*
D03*
X3124008Y666003D02*
D03*
X3024008Y466003D02*
D03*
X3124008Y266003D02*
D03*
X3024008Y66003D02*
D03*
X2924008Y3066005D02*
D03*
X2824008Y2866004D02*
D03*
X2924008Y2666004D02*
D03*
X2824008Y2466004D02*
D03*
X2924008Y2266004D02*
D03*
X2824008Y2066004D02*
D03*
X2924008Y1866004D02*
D03*
X2824008Y1666004D02*
D03*
X2924008Y1466004D02*
D03*
Y1066003D02*
D03*
Y666003D02*
D03*
Y266003D02*
D03*
X2824008Y66003D02*
D03*
X2724008Y3066005D02*
D03*
X2624007Y2866004D02*
D03*
X2724008Y2666004D02*
D03*
X2624007Y2466004D02*
D03*
X2724008Y2266004D02*
D03*
X2624007Y2066004D02*
D03*
X2724008Y1866004D02*
D03*
X2624007Y1666004D02*
D03*
X2724008Y1466004D02*
D03*
X2624007Y1266004D02*
D03*
X2724008Y1066003D02*
D03*
X2624007Y866003D02*
D03*
X2724008Y666003D02*
D03*
X2624007Y466003D02*
D03*
X2724008Y266003D02*
D03*
X2524007Y3066005D02*
D03*
X2424007Y2866004D02*
D03*
X2524007Y2666004D02*
D03*
X2424007Y2466004D02*
D03*
X2524007Y2266004D02*
D03*
X2424007Y1666004D02*
D03*
Y866003D02*
D03*
X2524007Y666003D02*
D03*
X2324007Y3066005D02*
D03*
X2224007Y2866004D02*
D03*
X2324007Y2666004D02*
D03*
X2224007Y2466004D02*
D03*
X2324007Y2266004D02*
D03*
X2224007Y2066004D02*
D03*
X2324007Y1866004D02*
D03*
X2224007Y1666004D02*
D03*
X2324007Y1466004D02*
D03*
Y1066003D02*
D03*
Y666003D02*
D03*
X2224007Y466003D02*
D03*
X2324007Y266003D02*
D03*
X2224007Y66003D02*
D03*
X2124007Y3066005D02*
D03*
X2024007Y2466004D02*
D03*
X2124007Y2266004D02*
D03*
X2024007Y2066004D02*
D03*
Y1266004D02*
D03*
Y66003D02*
D03*
X1924007Y3066005D02*
D03*
X1824007Y2866004D02*
D03*
Y2466004D02*
D03*
X1924007Y2266004D02*
D03*
X1824007Y2066004D02*
D03*
X1924007Y1866004D02*
D03*
Y1066003D02*
D03*
Y266003D02*
D03*
X1824007Y66003D02*
D03*
X1724007Y3066005D02*
D03*
X1624007Y2466004D02*
D03*
X1724007Y2266004D02*
D03*
Y1866004D02*
D03*
X1624007Y1666004D02*
D03*
Y1266004D02*
D03*
X1724007Y266003D02*
D03*
X1524007Y3066005D02*
D03*
X1424007Y2866004D02*
D03*
Y2466004D02*
D03*
X1524007Y2266004D02*
D03*
Y1866004D02*
D03*
X1424007Y66003D02*
D03*
X1324007Y3066005D02*
D03*
Y2666004D02*
D03*
X1224007Y2466004D02*
D03*
X1324007Y2266004D02*
D03*
Y1866004D02*
D03*
X1224007Y66003D02*
D03*
X1024007Y2866004D02*
D03*
Y2466004D02*
D03*
X1124007Y2266004D02*
D03*
X1024007Y2066004D02*
D03*
X1124007Y1866004D02*
D03*
Y1466004D02*
D03*
X1024007Y466003D02*
D03*
X924007Y3066005D02*
D03*
X824006Y2866004D02*
D03*
Y2466004D02*
D03*
X924007Y1866004D02*
D03*
X824006Y1666004D02*
D03*
X924007Y1466004D02*
D03*
Y1066003D02*
D03*
X624006Y2866004D02*
D03*
Y2466004D02*
D03*
Y2066004D02*
D03*
Y1666004D02*
D03*
X724006Y1466004D02*
D03*
Y1066003D02*
D03*
X524006Y2666004D02*
D03*
X424006Y2466004D02*
D03*
X524006Y2266004D02*
D03*
X424006Y2066004D02*
D03*
Y1666004D02*
D03*
X524006Y1466004D02*
D03*
X424006Y1266004D02*
D03*
Y866003D02*
D03*
Y66003D02*
D03*
X324006Y2266004D02*
D03*
Y1866004D02*
D03*
X224006Y1666004D02*
D03*
X324006Y1466004D02*
D03*
Y1066003D02*
D03*
Y266003D02*
D03*
X224006Y66003D02*
D03*
X124006Y3066005D02*
D03*
Y2266004D02*
D03*
X24006Y2066004D02*
D03*
X124006Y1866004D02*
D03*
X24006Y1666004D02*
D03*
Y1266004D02*
D03*
X124006Y666003D02*
D03*
X24006Y466003D02*
D03*
Y66003D02*
D03*
X571500Y1460500D02*
D03*
X254000Y2857500D02*
D03*
X1714500Y698500D02*
D03*
X1905000Y571500D02*
D03*
Y635000D02*
D03*
X2095500Y762000D02*
D03*
X2286000Y698500D02*
D03*
X2095500D02*
D03*
X2222500Y635000D02*
D03*
X2095500D02*
D03*
D45*
X572500Y298500D02*
D03*
Y463500D02*
D03*
X697500Y298500D02*
D03*
Y463500D02*
D03*
D46*
X317500Y2496800D02*
D03*
Y2583200D02*
D03*
X1270000Y424200D02*
D03*
Y337800D02*
D03*
X508000Y1821200D02*
D03*
Y1734800D02*
D03*
X698500Y1925300D02*
D03*
Y2011700D02*
D03*
X952500Y2202200D02*
D03*
Y2115800D02*
D03*
X1460500Y2202200D02*
D03*
Y2115800D02*
D03*
X1016000Y1757700D02*
D03*
Y1671300D02*
D03*
X1841500Y1861800D02*
D03*
Y1948200D02*
D03*
X2032000Y1607800D02*
D03*
Y1694200D02*
D03*
Y1353800D02*
D03*
Y1440200D02*
D03*
D47*
X63500Y2503500D02*
D03*
Y2603500D02*
D03*
X1905000Y2680500D02*
D03*
Y2780500D02*
D03*
X698500Y875500D02*
D03*
Y775500D02*
D03*
X2095500Y267500D02*
D03*
Y367500D02*
D03*
X889000Y431000D02*
D03*
Y331000D02*
D03*
X1270000Y1764500D02*
D03*
Y1664500D02*
D03*
D48*
X635000Y2646000D02*
D03*
Y2561000D02*
D03*
X508000Y2963000D02*
D03*
Y3048000D02*
D03*
D49*
X2159000Y2684500D02*
D03*
Y2776500D02*
D03*
X698500Y1668500D02*
D03*
Y1760500D02*
D03*
X1206500Y2187500D02*
D03*
Y2095500D02*
D03*
X1841500Y1443000D02*
D03*
Y1351000D02*
D03*
D50*
X1587500Y562000D02*
D03*
Y327000D02*
D03*
X508000Y997000D02*
D03*
Y762000D02*
D03*
D51*
X2018500Y1143000D02*
D03*
X1918500D02*
D03*
D52*
X1524000Y1760500D02*
D03*
Y1668500D02*
D03*
D53*
X1333500Y1016000D02*
D03*
D54*
X1208500Y1210500D02*
D03*
X1258500D02*
D03*
X1308500D02*
D03*
X1358500D02*
D03*
X1408500D02*
D03*
X1458500D02*
D03*
Y821500D02*
D03*
X1408500D02*
D03*
X1358500D02*
D03*
X1308500D02*
D03*
X1258500D02*
D03*
X1208500D02*
D03*
D55*
X1528000Y1141000D02*
D03*
Y1091000D02*
D03*
Y1041000D02*
D03*
Y991000D02*
D03*
Y941000D02*
D03*
Y891000D02*
D03*
X1139000D02*
D03*
Y941000D02*
D03*
Y991000D02*
D03*
Y1041000D02*
D03*
Y1091000D02*
D03*
Y1141000D02*
D03*
D56*
X1141500Y2803500D02*
D03*
X1206500D02*
D03*
X1271500D02*
D03*
Y2603500D02*
D03*
X1206500D02*
D03*
X1141500D02*
D03*
%TF.MD5,4943ddad1f06d76fa4b8c78917953854*%
M02*
