%TF.GenerationSoftware,Altium Limited,Altium Designer,22.6.1 (34)*%
G04 Layer_Color=255*
%FSLAX45Y45*%
%MOMM*%
%TF.SameCoordinates,421C64DB-711B-49BE-949A-821E8169F4DF*%
%TF.FilePolarity,Positive*%
%TF.FileFunction,Pads,Top*%
%TF.Part,Single*%
G01*
G75*
%TA.AperFunction,SMDPad,CuDef*%
%ADD10R,0.75000X0.76000*%
%ADD11R,0.60000X0.54000*%
%ADD12R,0.50000X0.50000*%
%ADD13R,0.60000X0.51000*%
%ADD14R,0.67000X0.62000*%
%ADD15R,0.73000X0.51000*%
%ADD16R,0.50000X0.50000*%
%ADD17R,0.50000X0.40000*%
G04:AMPARAMS|DCode=18|XSize=0.635mm|YSize=0.635mm|CornerRadius=0.15875mm|HoleSize=0mm|Usage=FLASHONLY|Rotation=270.000|XOffset=0mm|YOffset=0mm|HoleType=Round|Shape=RoundedRectangle|*
%AMROUNDEDRECTD18*
21,1,0.63500,0.31750,0,0,270.0*
21,1,0.31750,0.63500,0,0,270.0*
1,1,0.31750,-0.15875,-0.15875*
1,1,0.31750,-0.15875,0.15875*
1,1,0.31750,0.15875,0.15875*
1,1,0.31750,0.15875,-0.15875*
%
%ADD18ROUNDEDRECTD18*%
%ADD19R,1.00000X1.15000*%
%ADD20R,0.60000X0.56000*%
%ADD21R,0.63000X0.51000*%
%ADD22R,2.60000X2.60000*%
%ADD23R,0.26000X0.84000*%
%ADD24R,0.84000X0.26000*%
%ADD25O,0.40000X1.05000*%
%TA.AperFunction,ComponentPad*%
%ADD27C,1.60000*%
%ADD28R,1.60000X1.60000*%
D10*
X572500Y298500D02*
D03*
Y463500D02*
D03*
X697500Y298500D02*
D03*
Y463500D02*
D03*
D11*
X317500Y2496800D02*
D03*
Y2583200D02*
D03*
X1270000Y424200D02*
D03*
Y337800D02*
D03*
X508000Y1821200D02*
D03*
Y1734800D02*
D03*
X698500Y1925300D02*
D03*
Y2011700D02*
D03*
X952500Y2202200D02*
D03*
Y2115800D02*
D03*
X1460500Y2202200D02*
D03*
Y2115800D02*
D03*
X1016000Y1757700D02*
D03*
Y1671300D02*
D03*
X1841500Y1861800D02*
D03*
Y1948200D02*
D03*
X2032000Y1607800D02*
D03*
Y1694200D02*
D03*
Y1353800D02*
D03*
Y1440200D02*
D03*
D12*
X63500Y2503500D02*
D03*
Y2603500D02*
D03*
X1905000Y2680500D02*
D03*
Y2780500D02*
D03*
X698500Y875500D02*
D03*
Y775500D02*
D03*
X2095500Y267500D02*
D03*
Y367500D02*
D03*
X889000Y431000D02*
D03*
Y331000D02*
D03*
X1270000Y1764500D02*
D03*
Y1664500D02*
D03*
D13*
X889000Y2559000D02*
D03*
Y2648000D02*
D03*
X698500Y2940000D02*
D03*
Y3029000D02*
D03*
X889000Y870000D02*
D03*
Y781000D02*
D03*
D14*
X635000Y2646000D02*
D03*
Y2561000D02*
D03*
X508000Y2963000D02*
D03*
Y3048000D02*
D03*
D15*
X2159000Y2684500D02*
D03*
Y2776500D02*
D03*
X698500Y1668500D02*
D03*
Y1760500D02*
D03*
X1206500Y2187500D02*
D03*
Y2095500D02*
D03*
X1841500Y1443000D02*
D03*
Y1351000D02*
D03*
D16*
X1672500Y2730500D02*
D03*
X1502500D02*
D03*
X2018500Y1143000D02*
D03*
X1918500D02*
D03*
D17*
X1587500Y2635500D02*
D03*
Y2825500D02*
D03*
D18*
X1841500Y406400D02*
D03*
Y317500D02*
D03*
X825500Y1314450D02*
D03*
Y1225550D02*
D03*
D19*
X1587500Y562000D02*
D03*
Y327000D02*
D03*
X508000Y997000D02*
D03*
Y762000D02*
D03*
D20*
X571500Y1293500D02*
D03*
Y1206500D02*
D03*
X1841500Y1607500D02*
D03*
Y1694500D02*
D03*
D21*
X1524000Y1760500D02*
D03*
Y1668500D02*
D03*
D22*
X1333500Y1016000D02*
D03*
D23*
X1208500Y1210500D02*
D03*
X1258500D02*
D03*
X1308500D02*
D03*
X1358500D02*
D03*
X1408500D02*
D03*
X1458500D02*
D03*
Y821500D02*
D03*
X1408500D02*
D03*
X1358500D02*
D03*
X1308500D02*
D03*
X1258500D02*
D03*
X1208500D02*
D03*
D24*
X1528000Y1141000D02*
D03*
Y1091000D02*
D03*
Y1041000D02*
D03*
Y991000D02*
D03*
Y941000D02*
D03*
Y891000D02*
D03*
X1139000D02*
D03*
Y941000D02*
D03*
Y991000D02*
D03*
Y1041000D02*
D03*
Y1091000D02*
D03*
Y1141000D02*
D03*
D25*
X1141500Y2803500D02*
D03*
X1206500D02*
D03*
X1271500D02*
D03*
Y2603500D02*
D03*
X1206500D02*
D03*
X1141500D02*
D03*
D27*
X190500Y2032000D02*
D03*
Y1778000D02*
D03*
Y1270000D02*
D03*
Y762000D02*
D03*
Y508000D02*
D03*
Y1016000D02*
D03*
Y1524000D02*
D03*
X2476500D02*
D03*
Y1016000D02*
D03*
Y508000D02*
D03*
Y762000D02*
D03*
Y1270000D02*
D03*
Y1778000D02*
D03*
Y2032000D02*
D03*
D28*
X190500Y254000D02*
D03*
X2476500D02*
D03*
%TF.MD5,5ea4a5907b3099f59159584c210903cd*%
M02*
