%TF.GenerationSoftware,Altium Limited,Altium Designer,22.6.1 (34)*%
G04 Layer_Color=32768*
%FSLAX45Y45*%
%MOMM*%
%TF.SameCoordinates,421C64DB-711B-49BE-949A-821E8169F4DF*%
%TF.FilePolarity,Positive*%
%TF.FileFunction,Other,Mechanical_15*%
%TF.Part,Single*%
G01*
G75*
%TA.AperFunction,NonConductor*%
%ADD33C,0.12700*%
%ADD57C,0.05000*%
%ADD59C,0.05080*%
G36*
X138500Y2678500D02*
Y2428500D01*
X-11500D01*
Y2678500D01*
X138500D01*
D02*
G37*
G36*
X1843500Y1218000D02*
X2093500D01*
Y1068000D01*
X1843500D01*
Y1218000D01*
D02*
G37*
G36*
X1980000Y2855500D02*
Y2605500D01*
X1830000D01*
Y2855500D01*
X1980000D01*
D02*
G37*
D33*
X748500Y725500D02*
Y925500D01*
X648500Y725500D02*
X748500D01*
X648500D02*
Y925500D01*
X748500D01*
X2045500Y217500D02*
Y417500D01*
X2145500D01*
Y217500D02*
Y417500D01*
X2045500Y217500D02*
X2145500D01*
X939000Y281000D02*
Y481000D01*
X839000Y281000D02*
X939000D01*
X839000D02*
Y481000D01*
X939000D01*
X1320000Y1614500D02*
Y1814500D01*
X1220000Y1614500D02*
X1320000D01*
X1220000D02*
Y1814500D01*
X1320000D01*
D57*
X510000Y231000D02*
Y531000D01*
X760000D01*
Y231000D02*
Y531000D01*
X510000Y231000D02*
X760000D01*
X1169500Y529000D02*
X1389500D01*
Y499000D02*
Y529000D01*
Y499000D02*
X1490500D01*
Y199000D02*
Y499000D01*
X1389500Y199000D02*
X1490500D01*
X1389500Y169000D02*
Y199000D01*
X1169500Y169000D02*
X1389500D01*
X1169500D02*
Y199000D01*
X1068500D02*
X1169500D01*
X1068500D02*
Y499000D01*
X1169500D01*
Y529000D01*
X770500Y32000D02*
Y222000D01*
X880500Y32000D02*
Y222000D01*
X770500Y32000D02*
X880500D01*
X770500Y222000D02*
X880500D01*
X961000Y30500D02*
Y223500D01*
X1071000Y30500D02*
Y223500D01*
X961000Y30500D02*
X1071000D01*
X961000Y223500D02*
X1071000D01*
X372500Y2445000D02*
Y2635000D01*
X262500Y2445000D02*
Y2635000D01*
Y2445000D02*
X372500D01*
X262500Y2635000D02*
X372500D01*
X944000Y2508500D02*
Y2698500D01*
X834000Y2508500D02*
Y2698500D01*
Y2508500D02*
X944000D01*
X834000Y2698500D02*
X944000D01*
X576500Y2505000D02*
Y2702000D01*
X693500Y2505000D02*
Y2702000D01*
X576500D02*
X693500D01*
X576500Y2505000D02*
X693500D01*
X2097500Y2634000D02*
X2220500D01*
X2097500Y2827000D02*
X2220500D01*
Y2634000D02*
Y2827000D01*
X2097500Y2634000D02*
Y2827000D01*
X1447500Y2590500D02*
X1727500D01*
X1447500D02*
Y2870500D01*
X1727500D01*
Y2590500D02*
Y2870500D01*
X566500Y2907000D02*
Y3104000D01*
X449500Y2907000D02*
Y3104000D01*
Y2907000D02*
X566500D01*
X449500Y3104000D02*
X566500D01*
X753500Y2889500D02*
Y3079500D01*
X643500Y2889500D02*
Y3079500D01*
Y2889500D02*
X753500D01*
X643500Y3079500D02*
X753500D01*
X834000Y730500D02*
Y920500D01*
X944000Y730500D02*
Y920500D01*
X834000D02*
X944000D01*
X834000Y730500D02*
X944000D01*
X1215000Y286000D02*
Y476000D01*
X1325000Y286000D02*
Y476000D01*
X1215000D02*
X1325000D01*
X1215000Y286000D02*
X1325000D01*
X516500Y1153500D02*
Y1346500D01*
X626500Y1153500D02*
Y1346500D01*
X516500D02*
X626500D01*
X516500Y1153500D02*
X626500D01*
X453000Y1683000D02*
Y1873000D01*
X563000Y1683000D02*
Y1873000D01*
X453000D02*
X563000D01*
X453000Y1683000D02*
X563000D01*
X637000Y1618000D02*
X760000D01*
X637000Y1811000D02*
X760000D01*
Y1618000D02*
Y1811000D01*
X637000Y1618000D02*
Y1811000D01*
X753500Y1873500D02*
Y2063500D01*
X643500Y1873500D02*
Y2063500D01*
Y1873500D02*
X753500D01*
X643500Y2063500D02*
X753500D01*
X897500Y2064000D02*
Y2254000D01*
X1007500Y2064000D02*
Y2254000D01*
X897500D02*
X1007500D01*
X897500Y2064000D02*
X1007500D01*
X1145000Y2238000D02*
X1268000D01*
X1145000Y2045000D02*
X1268000D01*
X1145000D02*
Y2238000D01*
X1268000Y2045000D02*
Y2238000D01*
X1405500Y2064000D02*
Y2254000D01*
X1515500Y2064000D02*
Y2254000D01*
X1405500D02*
X1515500D01*
X1405500Y2064000D02*
X1515500D01*
X961000Y1619500D02*
Y1809500D01*
X1071000Y1619500D02*
Y1809500D01*
X961000D02*
X1071000D01*
X961000Y1619500D02*
X1071000D01*
X1896500Y1554500D02*
Y1747500D01*
X1786500Y1554500D02*
Y1747500D01*
Y1554500D02*
X1896500D01*
X1786500Y1747500D02*
X1896500D01*
Y1810000D02*
Y2000000D01*
X1786500Y1810000D02*
Y2000000D01*
Y1810000D02*
X1896500D01*
X1786500Y2000000D02*
X1896500D01*
X2087000Y1556000D02*
Y1746000D01*
X1977000Y1556000D02*
Y1746000D01*
Y1556000D02*
X2087000D01*
X1977000Y1746000D02*
X2087000D01*
Y1302000D02*
Y1492000D01*
X1977000Y1302000D02*
Y1492000D01*
Y1302000D02*
X2087000D01*
X1977000Y1492000D02*
X2087000D01*
X1780000Y1493500D02*
X1903000D01*
X1780000Y1300500D02*
X1903000D01*
X1780000D02*
Y1493500D01*
X1903000Y1300500D02*
Y1493500D01*
X1467500Y1618000D02*
Y1811000D01*
X1580500Y1618000D02*
Y1811000D01*
X1467500D02*
X1580500D01*
X1467500Y1618000D02*
X1580500D01*
X1071500Y1179000D02*
X1103500D01*
Y1246000D01*
X1170500D01*
Y1278000D01*
X1496500D01*
Y1246000D02*
Y1278000D01*
Y1246000D02*
X1563500D01*
Y1179000D02*
Y1246000D01*
Y1179000D02*
X1595500D01*
Y853000D02*
Y1179000D01*
X1563500Y853000D02*
X1595500D01*
X1563500Y786000D02*
Y853000D01*
X1496500Y786000D02*
X1563500D01*
X1496500Y754000D02*
Y786000D01*
X1170500Y754000D02*
X1496500D01*
X1170500D02*
Y786000D01*
X1103500D02*
X1170500D01*
X1103500D02*
Y853000D01*
X1071500D02*
X1103500D01*
X1071500D02*
Y1179000D01*
X1076500Y2523500D02*
X1336500D01*
Y2883500D01*
X1076500D02*
X1336500D01*
X1076500Y2523500D02*
Y2883500D01*
X190500Y1093000D02*
Y1193000D01*
X140500Y1143000D02*
X240500D01*
X345000Y92000D02*
Y2194000D01*
X36000D02*
X345000D01*
X36000Y92000D02*
Y2194000D01*
Y92000D02*
X345000D01*
X2322000D02*
X2631000D01*
X2322000D02*
Y2194000D01*
X2631000D01*
Y92000D02*
Y2194000D01*
X2426500Y1143000D02*
X2526500D01*
X2476500Y1093000D02*
Y1193000D01*
D59*
X1502500Y244500D02*
X1672500D01*
Y644500D01*
X1502500D02*
X1672500D01*
X1502500Y244500D02*
Y644500D01*
X423000Y679500D02*
X593000D01*
Y1079500D01*
X423000D02*
X593000D01*
X423000Y679500D02*
Y1079500D01*
%TF.MD5,5aa47b4dbc34a8a8aa6d2d91aca10864*%
M02*
